<?xml version="1.0" encoding="UTF-8"?><svg id="Layer_2" xmlns="http://www.w3.org/2000/svg" viewBox="0 0 90.96 90.96"><defs><style>.cls-1{fill:#fff;}</style></defs><g id="Layer_1-2"><path class="cls-1" d="M45.48,0C20.36,0,0,20.36,0,45.48s20.36,45.48,45.48,45.48,45.48-20.36,45.48-45.48S70.59,0,45.48,0ZM69.17,47.46l-10.13,17.55c-.71,1.22-2.01,1.98-3.43,1.98h-20.26c-1.41,0-2.72-.75-3.43-1.98l-10.13-17.55c-.71-1.22-.71-2.73,0-3.96l10.13-17.55c.71-1.22,2.01-1.98,3.43-1.98h20.26c1.41,0,2.72.75,3.43,1.98l10.13,17.55c.71,1.22.71,2.73,0,3.96Z"/></g></svg>