<?xml version="1.0" encoding="UTF-8"?><svg id="Layer_2" xmlns="http://www.w3.org/2000/svg" viewBox="0 0 90.96 90.96"><defs><style>.cls-1{fill:#fff;}</style></defs><g id="Layer_1-2"><path class="cls-1" d="M45.48,0C20.36,0,0,20.36,0,45.48s20.36,45.48,45.48,45.48,45.48-20.36,45.48-45.48S70.59,0,45.48,0ZM55.14,46.59l10.89,11.96c.6.65.57,1.66-.05,2.28l-5.14,5.14c-.63.63-1.63.65-2.28.05l-11.96-10.89c-.63-.58-1.6-.58-2.23,0l-11.96,10.89c-.65.6-1.66.57-2.28-.05l-5.14-5.14c-.63-.63-.65-1.63-.05-2.28l10.89-11.96c.58-.63.58-1.6,0-2.23l-10.89-11.96c-.6-.65-.57-1.66.05-2.28l5.14-5.14c.63-.63,1.63-.65,2.28-.05l11.96,10.89c.63.58,1.6.58,2.23,0l11.96-10.89c.65-.6,1.66-.57,2.28.05l5.14,5.14c.63.63.65,1.63.05,2.28l-10.89,11.96c-.58.63-.58,1.6,0,2.23Z"/></g></svg>