<?xml version="1.0" encoding="UTF-8"?><svg id="Layer_2" xmlns="http://www.w3.org/2000/svg" viewBox="0 0 24.33 21.15"><defs><style>.cls-1{fill:#fff;}</style></defs><g id="Layer_1-2"><path class="cls-1" d="M0,18.57c0-1.35,1.14-2.55,2.55-2.55s2.58,1.2,2.58,2.55-1.17,2.58-2.58,2.58-2.55-1.17-2.55-2.58ZM1.2,13.29l-.12-11.82c0-.81.66-1.47,1.47-1.47s1.5.66,1.5,1.47l-.15,11.82c0,.72-.6,1.35-1.35,1.35s-1.35-.63-1.35-1.35Z"/><path class="cls-1" d="M9.6,18.57c0-1.35,1.14-2.55,2.55-2.55s2.58,1.2,2.58,2.55-1.17,2.58-2.58,2.58-2.55-1.17-2.55-2.58ZM10.8,13.29l-.12-11.82c0-.81.66-1.47,1.47-1.47s1.5.66,1.5,1.47l-.15,11.82c0,.72-.6,1.35-1.35,1.35s-1.35-.63-1.35-1.35Z"/><path class="cls-1" d="M19.2,18.57c0-1.35,1.14-2.55,2.55-2.55s2.58,1.2,2.58,2.55-1.17,2.58-2.58,2.58-2.55-1.17-2.55-2.58ZM20.4,13.29l-.12-11.82c0-.81.66-1.47,1.47-1.47s1.5.66,1.5,1.47l-.15,11.82c0,.72-.6,1.35-1.35,1.35s-1.35-.63-1.35-1.35Z"/></g></svg>