<?xml version="1.0" encoding="UTF-8"?><svg id="Layer_2" xmlns="http://www.w3.org/2000/svg" viewBox="0 0 25.92 25.56"><defs><style>.cls-1{fill:#fff;}</style></defs><g id="Layer_1-2"><path class="cls-1" d="M0,12.78C0,5.33,5.33,0,12.96,0s12.96,5.33,12.96,12.78-5.33,12.78-12.96,12.78S0,20.23,0,12.78ZM11.23,9.4c0-1.4-1.12-2.52-2.52-2.52s-2.52,1.12-2.52,2.52,1.12,2.52,2.52,2.52,2.52-1.12,2.52-2.52ZM19.29,17.42c.18-.29.22-.54.22-.76,0-.79-.65-1.44-1.44-1.44-.54,0-.97.29-1.22.68-.68,1.08-1.94,1.66-3.89,1.66s-3.2-.58-3.89-1.66c-.25-.4-.68-.68-1.22-.68-.79,0-1.44.65-1.44,1.44,0,.22.04.47.22.76,1.3,2.09,3.56,3.02,6.33,3.02s5.04-.94,6.34-3.02ZM19.73,9.4c0-1.4-1.12-2.52-2.52-2.52s-2.52,1.12-2.52,2.52,1.12,2.52,2.52,2.52,2.52-1.12,2.52-2.52Z"/></g></svg>