<?xml version="1.0" encoding="UTF-8"?><svg id="Layer_2" xmlns="http://www.w3.org/2000/svg" viewBox="0 0 40.25 16.77"><defs><style>.cls-1{fill:#fff;}</style></defs><g id="Layer_1-2"><path class="cls-1" d="M9.51,6.13c.62,0,1.09.54.92,1.21l-.34,1.59c-.08.3-.18.48-.42.68l-4.89,4.16,1.09.54c.74.36,1.11.48,1.41.48.38,0,.6-.18.8-.74.14-.42.4-.72.91-.72.54,0,.97.44.97.97,0,.1,0,.18-.02.26-.4,1.37-1.29,2.15-2.53,2.15-.68,0-1.41-.22-2.37-.68l-1.81-.92-1.63,1.39c-.18.16-.38.22-.62.22-.54,0-.97-.42-.97-.97,0-.3.12-.56.34-.74l8.19-6.92H3.36c-.52,0-.97-.44-.97-.97s.44-.99.97-.99h6.15Z"/><path class="cls-1" d="M23.38,2.89c.75,0,1.25.7,1.11,1.38l-.34,1.47c-.1.41-.29.65-.65.99l-6.78,6.37,1.69.8c1.16.51,1.57.68,1.93.68.51,0,.77-.34.96-1.3.07-.48.51-.94,1.11-.94s1.13.53,1.13,1.13c0,.15-.02.27-.07.41-.39,1.79-1.45,2.9-3.14,2.9-.82,0-1.69-.29-2.87-.82l-2.51-1.18-1.71,1.62c-.24.22-.51.39-.87.39-.6,0-1.13-.51-1.13-1.13,0-.36.17-.63.39-.87l10.25-9.6h-6.15c-.63,0-1.13-.51-1.13-1.13s.51-1.13,1.13-1.13h7.65Z"/><path class="cls-1" d="M39.09,0c.8,0,1.28.7,1.13,1.38l-.34,1.57c-.1.39-.27.65-.58.94l-8.61,8.76,2.15,1.06c1.06.51,1.79.77,2.32.77.65,0,1.11-.41,1.38-1.69.1-.51.51-.89,1.11-.89.65,0,1.16.51,1.16,1.16,0,.05,0,.12-.02.22-.48,2.22-1.74,3.5-3.62,3.5-.96,0-1.95-.31-3.3-.96l-2.87-1.42-2.03,2.05c-.22.22-.51.34-.82.34-.65,0-1.18-.51-1.18-1.16,0-.31.12-.6.31-.8l12.38-12.52h-7.36c-.63,0-1.13-.53-1.13-1.16s.51-1.13,1.13-1.13h8.81Z"/></g></svg>